<svg width="118" height="9" viewBox="0 0 118 9" fill="none" xmlns="http://www.w3.org/2000/svg">
<path fill-rule="evenodd" clip-rule="evenodd" d="M98.3314 9C93.0795 9 90.4411 7.14254 87.8894 5.34635C85.501 3.66508 83.2454 2.07692 78.6628 2.07692C74.0813 2.07692 71.8257 3.66508 69.4376 5.34635C66.8863 7.14254 64.2483 9 58.9974 9C53.7458 9 51.1074 7.14254 48.5564 5.34635C46.1684 3.66508 43.9124 2.07692 39.3309 2.07692C34.7494 2.07692 32.4938 3.66508 30.1057 5.34635C27.5547 7.14254 24.9167 9 19.6654 9C14.4142 9 11.7762 7.14254 9.22521 5.34635C6.83746 3.66508 4.58185 2.07692 0 2.07692V0C5.25123 0 7.88925 1.85746 10.4406 3.65365C12.8283 5.33492 15.0839 6.92308 19.6654 6.92308C24.2469 6.92308 26.5026 5.33492 28.8907 3.65365C31.442 1.85746 34.08 0 39.3309 0C44.5821 0 47.2201 1.85746 49.7715 3.65365C52.1596 5.33492 54.4152 6.92308 58.9974 6.92308C63.5789 6.92308 65.8341 5.33492 68.2222 3.65365C70.7736 1.85746 73.4116 0 78.6628 0C83.9147 0 86.5531 1.85712 89.1048 3.65365C91.4932 5.33492 93.7492 6.92308 98.3314 6.92308C102.914 6.92308 105.169 5.33492 107.558 3.65365C110.109 1.85746 112.748 0 118 0V2.07692C113.417 2.07692 111.161 3.66508 108.773 5.34635C106.221 7.14288 103.583 9 98.3314 9Z" fill="url(#paint0_linear)"/>
<defs>
<linearGradient id="paint0_linear" x1="0" y1="9" x2="118" y2="9" gradientUnits="userSpaceOnUse">
<stop stop-color="#F86B6A"/>
<stop offset="1" stop-color="#FD954E"/>
</linearGradient>
</defs>
</svg>
