<svg width="163" height="54" viewBox="0 0 163 54" fill="none" xmlns="http://www.w3.org/2000/svg">
<path fill-rule="evenodd" clip-rule="evenodd" d="M22.7548 34.2455L8.98914 19.7728L3 19.7494V52.173H12.2458V37.2693L26.0437 53H32V19H22.7548V34.2455Z" fill="#151F2F"/>
<path fill-rule="evenodd" clip-rule="evenodd" d="M95.4944 32.9696L84.9563 19.1472H79V53H88.1131V38.4168L93.1394 44.0545H97.7773L102.888 38.3768V53H112V19.2312L106.072 19L95.4944 32.9696Z" fill="#151F2F"/>
<path fill-rule="evenodd" clip-rule="evenodd" d="M142.753 27.7329H146.41C150.514 27.7329 153.493 30.8768 153.493 35.2093C153.493 39.4239 150.382 42.7265 146.41 42.7265H142.753V27.7329ZM157.764 23.6408C154.67 20.6312 150.531 18.9059 146.41 18.9059H133.663V51.5528H146.472L146.534 51.5495C150.9 51.3013 154.964 49.5219 157.976 46.5401C161.053 43.495 162.747 39.4707 162.747 35.2093C162.747 30.8748 160.977 26.7662 157.764 23.6408Z" fill="#151F2F"/>
<path fill-rule="evenodd" clip-rule="evenodd" d="M65.157 28.8645C64.9201 29.0199 64.8244 29.1325 64.9557 29.3696C65.1695 29.2754 65.215 29.1424 65.157 28.8645ZM59.3622 30.9079C59.0791 30.7104 59.153 30.2237 58.6785 30.3758C58.7208 30.9198 58.7637 30.9599 59.3622 30.9079ZM55.34 22.4839C55.3539 22.7105 55.5089 22.8435 55.637 22.964C55.734 23.0555 55.9155 23.0562 56.0276 22.9396C56.0936 22.8711 56.2335 22.7947 56.1379 22.6677C56.0798 22.5913 55.9979 22.4062 55.9056 22.4984C55.6983 22.7045 55.5644 22.4029 55.34 22.4839ZM61.996 33.2082C61.6607 33.1483 61.3651 32.8835 61.0661 33.1858C60.9817 33.2707 60.9942 33.4367 61.1559 33.4894C61.4726 33.5941 61.8039 33.7205 61.996 33.2082ZM64.7274 34.2467C64.5835 34.5318 64.505 34.8177 64.7313 35.1482C65.0824 35.0211 65.2645 34.7775 65.3378 34.4258C65.118 34.3613 64.926 34.3047 64.7274 34.2467ZM57.653 24.962C57.43 24.9133 57.2195 24.8678 57.0136 24.823C56.9443 24.9758 57.1752 24.9798 57.1185 25.1135C56.9568 25.1497 56.7918 25.1879 56.6229 25.2261C56.7357 25.5138 56.9627 25.6344 57.2036 25.5698C57.4722 25.4974 57.5963 25.2425 57.653 24.962ZM59.9898 27.5382C59.8215 27.6653 59.644 27.7516 59.4196 27.7074C59.2956 27.6831 59.2137 27.7713 59.1656 27.88C59.1279 27.9643 59.155 28.0532 59.2256 28.0887C59.4335 28.1941 59.6486 28.3258 59.8875 28.1743C60.1554 28.0038 60.1713 27.8852 59.9898 27.5382ZM65.1029 32.0367C65.6169 31.982 65.741 31.7917 65.7113 31.1457C65.1266 31.0996 64.9748 31.3116 65.1029 32.0367ZM59.3787 42.1511C59.217 42.5515 59.3457 43.0421 59.6473 43.2449C59.7344 43.3036 59.8143 43.4043 59.939 43.3319C60.0597 43.2614 60.0947 43.1495 60.1026 43.0138C60.131 42.4916 59.7173 42.3658 59.3787 42.1511ZM69.88 29.2484C69.6292 29.3446 69.5487 29.5612 69.4669 29.7601C69.1501 30.526 69.4854 31.3531 69.2273 32.1295C69.7467 31.6685 69.5738 31.0521 69.587 30.5042C69.5949 30.1908 69.6187 29.9208 69.779 29.6593C69.8496 29.5447 69.9975 29.4545 69.88 29.2484ZM62.8882 29.8964C62.5015 30.2349 61.9405 30.4779 62.0982 31.0199C62.1999 31.3709 62.6499 31.3919 63.0485 31.3537C62.966 30.8493 62.6763 30.4087 62.8882 29.8964ZM48.9606 40.9585C49.1236 40.1083 48.8477 39.6072 48.0268 39.2621C47.813 39.7672 48.4175 40.865 48.9606 40.9585ZM58.3446 24.9238C58.7267 24.8474 58.7901 25.0502 58.7993 25.3209C58.8178 25.8286 59.3576 26.1243 59.3543 26.6485C59.3543 26.692 59.4328 26.7506 59.4869 26.7763C60.0235 27.0337 60.6075 27.1799 61.1645 27.3716C61.4812 27.4802 61.7571 27.5797 62.0065 27.7924C62.1411 27.907 62.2619 28.1493 62.4718 27.9978C62.6381 27.8773 62.6955 27.6488 62.6235 27.4374C62.4335 26.8803 62.4064 26.2211 61.6422 26.0367C61.4033 25.9788 61.4119 25.5198 61.3341 25.471C60.8873 25.1925 61.0397 24.8382 61.0674 24.4661C61.0879 24.1816 60.917 24.0051 60.6009 23.9959C60.1521 23.9834 59.6975 23.99 59.2573 23.9176C59.0052 23.8761 58.8468 23.9696 58.7129 24.1118C58.5221 24.314 58.858 24.3601 58.8805 24.5017C58.7432 24.6591 58.4997 24.6222 58.3446 24.9238ZM57.5012 31.3004C56.8631 30.9264 56.4276 29.8576 56.7437 29.4269C56.8915 29.4749 56.8829 29.7272 57.0928 29.6969C57.2419 29.6751 57.2723 29.5533 57.2597 29.4499C57.1554 28.5997 56.9766 27.7443 56.6605 26.9699C56.4163 26.3713 55.5967 26.314 54.9375 26.6465C54.82 26.7058 54.6497 26.7256 54.6478 26.9192C54.6451 27.1681 54.8748 27.0884 54.9922 27.1674C55.0741 27.2234 55.2252 27.1523 55.2648 27.3268C55.0681 27.4868 54.7071 27.1569 54.622 27.5658C54.2597 27.2313 54.3402 26.8606 54.4445 26.5398C54.3336 26.337 54.131 26.6182 54.0683 26.4016C53.9938 26.1434 53.9014 25.8839 53.8789 25.6192C53.8591 25.3828 54.0855 25.3005 54.2723 25.3044C54.8721 25.3169 55.2423 24.9021 55.1453 24.2323C54.8319 24.4187 54.8847 24.8184 54.6504 24.9995C54.4036 25.1905 54.1244 25.2939 53.8809 24.9646C54.498 24.3166 54.5402 24.0552 54.0677 23.6594C54.23 23.5837 54.4399 23.5731 54.4933 23.3848C54.6497 22.8303 55.4826 22.5004 55.0345 21.7378C54.9718 21.6318 55.01 21.4592 55.1176 21.3374C55.3222 21.1069 55.538 20.9357 55.831 20.7796C56.7674 20.2805 57.7659 20.0197 58.7769 19.7668C58.9418 19.7253 59.0573 19.6285 59.0362 19.3776C58.6541 19.4764 58.3915 19.1985 58.0892 19.0957C57.4062 18.8626 56.644 18.8626 55.9089 18.7678C55.8792 19.02 56.1293 19.0628 56.1029 19.2472C55.9386 19.3816 55.769 19.4658 55.5485 19.3322C55.1414 19.0859 54.7527 19.2235 54.3805 19.4244C54.1007 19.5745 53.8347 19.7497 53.5602 19.9097C53.5233 19.9321 53.4731 19.9308 53.4454 19.9367C53.3543 19.8267 53.4665 19.6693 53.3253 19.5844C52.9386 19.5613 52.6871 19.7299 52.3671 19.9782C51.8563 20.374 51.2175 20.6525 50.5721 20.8382C49.5532 21.1306 48.7685 21.7694 48.0677 22.5201C46.7617 23.9208 45.8134 25.5362 45.1825 27.3466C45.011 27.8398 44.912 28.3192 44.9846 28.8348C45.1027 29.6771 45.2696 30.5214 44.8658 31.3557C45.102 31.4334 45.2677 31.3728 45.4366 31.3439C46.1493 31.2214 46.8304 31.2537 47.419 31.7515C47.7265 32.0116 48.0895 32.1684 48.4795 32.2671C48.8972 32.3738 49.3123 32.4904 49.7492 32.6083C49.1236 33.2747 48.855 33.3373 48.0591 33.0021C47.9436 32.9533 47.8578 32.9632 47.745 32.9942C47.2626 33.1272 47.3326 33.5065 47.3055 33.8549C47.8222 34.0445 48.4326 33.7976 48.7514 34.5378C49.0259 35.1752 48.855 35.5954 48.5191 36.1881C48.3145 35.9299 48.1528 35.7264 47.974 35.5019C47.8275 35.7475 47.846 35.9332 47.8941 36.1176C48.1746 37.1825 48.5303 38.2183 49.216 39.0988C49.5486 39.5255 49.7089 39.9773 49.6376 40.51C49.5981 40.807 49.7254 41.0026 49.9425 41.2074C50.388 41.6269 50.8704 41.9977 51.2459 42.5094C51.5824 42.9677 51.979 43.5031 52.6165 43.5782C53.1649 43.6434 53.6935 43.7428 54.2148 43.9937C54.3402 43.5841 54.4636 43.241 54.5481 42.8887C54.6794 42.3427 55.1704 42.67 55.4859 42.4758C55.3578 42.1854 55.2272 41.8884 55.0886 41.5729C55.5598 41.3102 56.0395 41.1001 56.1774 40.5621C56.6757 40.5318 57.1515 40.4791 57.6266 40.4837C57.9091 40.4863 58.0919 40.4073 58.1631 40.1143C58.3915 40.2236 58.573 40.321 58.7637 40.3981C58.9517 40.4732 59.1372 40.705 59.3206 40.6154C60.0426 40.2638 60.8312 39.9621 61.1453 39.1218C61.2516 38.8387 61.3776 38.5753 61.5828 38.296C60.8187 37.756 60.1865 37.1238 59.869 36.2375C59.8162 36.0893 59.7436 35.9431 59.6526 35.8147C59.2909 35.3037 59.0752 34.6471 58.3176 34.5292C58.1697 34.5062 57.979 34.4357 57.9071 34.248L57.8992 34.2566C58.1268 34.3198 58.3512 34.4008 58.5822 34.4429C59.0659 34.5305 59.2817 34.3336 59.2513 33.8575C59.1867 32.8282 59.1867 32.8289 58.1499 32.788C58.0906 32.7854 58.0331 32.7604 57.9856 32.7485C57.8239 32.3178 58.1552 32.0584 58.2984 31.7416C58.084 31.4776 57.692 31.5572 57.4946 31.2932C57.9104 31.1964 58.311 31.4624 58.763 31.3649C58.3044 30.8217 58.3308 30.2645 58.6647 29.7002C58.4905 29.604 58.3631 29.5336 58.1618 29.4223C58.2252 30.1941 57.5494 30.6228 57.5012 31.3004ZM63.5296 24.2495C63.688 24.9508 63.9579 25.0753 64.4522 24.6742C64.3314 24.2508 64.3314 24.2508 63.9434 24.2547C63.8028 24.256 63.6616 24.2574 63.521 24.2587C63.7685 23.9426 64.1249 23.9097 64.4779 23.9314C64.7993 23.9518 64.9286 24.2402 64.959 24.4905C64.992 24.7559 65.1695 24.9014 65.2711 25.1056C65.442 25.448 65.7654 25.716 65.8486 26.1618C65.314 25.8471 64.8488 25.5448 64.3565 25.2946C63.9751 25.1009 63.7652 25.282 63.785 25.7061C63.7982 25.9867 63.9038 26.2139 64.0985 26.3956C63.9856 26.5313 63.8272 26.3726 63.7381 26.497C63.7164 26.5978 63.8048 26.6307 63.8457 26.6933C64.0424 26.9923 64.3063 27.2787 64.2502 27.6673C64.1592 28.2935 64.204 28.3541 64.8237 28.3581C65.0025 28.3594 65.1174 28.2916 65.2461 28.1888C65.3662 28.0933 65.5615 27.9689 65.6658 28.1355C65.9429 28.5754 66.294 28.5411 66.7368 28.4568C66.9724 28.4121 67.2067 28.4812 67.4291 28.2883C67.5413 28.1908 67.7914 28.1954 67.9286 28.2995C68.1127 28.4391 68.3087 28.447 68.5127 28.4555C68.7779 28.4667 68.9469 28.5879 69.0716 28.825C69.1653 29.0028 69.195 29.2609 69.4662 29.2998C69.492 29.2563 69.5177 29.2306 69.5203 29.203C69.525 29.1569 69.5283 29.1029 69.5085 29.0634C69.2148 28.4766 68.8393 27.905 69.2537 27.2168C69.296 27.147 69.2504 27.0285 69.2597 26.9343C69.2722 26.8013 69.2069 26.6446 69.3593 26.5491C69.8087 26.7506 70.3182 27.8602 70.1354 28.2389C70.1176 28.2764 70.0747 28.308 70.0357 28.3278C69.6662 28.5141 69.7969 28.7288 69.977 28.9745C70.0925 29.1318 70.369 29.2583 70.2766 29.4703C70.1077 29.8602 70.2641 30.1717 70.398 30.5082C70.5485 30.8842 70.6165 31.3063 70.4502 31.6606C70.2152 32.1631 69.8734 32.6162 69.5698 33.085C69.0069 33.9543 68.7845 35.0323 67.9134 35.6876C68.0243 35.8786 68.1101 36.0261 68.1992 36.1802C67.8963 36.5568 67.6231 36.9269 67.5149 37.3866C67.4515 37.6566 67.2845 37.81 67.0265 37.9161C66.8173 38.001 66.56 38.0445 66.4709 38.3184C66.2122 39.1172 65.6182 39.6777 65.0699 40.271C64.9623 40.3876 64.7247 40.5061 64.9115 40.6931C65.1332 40.915 65.2071 41.3727 65.6176 41.3102C66.228 41.2173 66.783 41.0237 67.2489 40.5324C68.9786 38.7109 70.0859 36.5667 70.6574 34.1453C70.7854 33.6027 71.1616 32.9817 70.4871 32.493C71.0685 32.2052 70.9273 31.7166 70.9346 31.28C70.9431 30.8315 70.5782 30.4904 70.5498 30.0676C70.6528 29.9313 70.7795 30.1157 70.8646 30.0037C70.7999 28.1085 69.7757 25.4658 68.4222 23.6456C67.9438 23.0022 67.4192 22.4161 66.7203 22.0052C65.9007 21.5244 65.0402 21.1319 64.1374 20.8389C63.7051 20.6999 63.3145 20.4563 62.8967 20.3173C62.4275 20.1613 62.0171 19.9979 61.6502 19.6443C61.3393 19.3447 60.8464 19.2887 60.496 19.0088C60.4729 18.9904 60.4108 19.0207 60.3693 19.0279C60.3613 19.1379 60.5428 19.1537 60.4979 19.2828C60.1884 19.2406 59.9 19.1412 59.5675 19.2551C59.8077 19.7398 59.2395 19.7306 59.1279 20.0454C59.7733 20.7796 60.8299 20.5452 61.5828 21.0984C61.3684 21.585 61.9564 21.6107 62.1431 21.8906C61.8884 22.2007 61.8646 22.208 61.7214 21.9011C61.6594 21.7681 61.5921 21.6877 61.4528 21.6785C61.082 21.6555 60.6953 22.0137 60.6708 22.393C60.6603 22.5636 60.6392 22.7335 60.618 22.9548C60.168 22.7829 59.9509 23.2761 59.5635 23.2333C59.5127 23.4256 59.4929 23.5791 59.5477 23.7101C60.0089 23.7872 60.4583 23.7588 60.9071 23.7621C61.2945 23.7661 61.4093 23.6364 61.4614 23.3479C61.373 23.1378 61.1658 23.1438 61.0252 23.0338C61.1196 22.7401 61.0028 22.2897 61.604 22.3502C61.4766 22.5972 61.565 22.8119 61.5399 23.0279C61.8264 23.041 62.1154 23.0964 62.0685 22.6479C62.2546 22.7236 62.3681 22.9324 62.5674 22.7994C62.7463 22.6795 62.5998 22.4293 62.7555 22.2969C62.9007 22.3246 62.9396 22.4326 62.9449 22.5419C62.9555 22.7315 62.9825 22.9508 62.8466 23.0885C62.6433 23.2946 62.3213 23.2406 62.0613 23.3321C61.6607 23.4717 61.4766 23.5343 61.5868 23.9656C61.7076 24.4404 61.6739 25.0008 62.2177 25.2794C62.254 25.2978 62.2784 25.3518 62.2942 25.3933C62.5727 26.1441 62.8182 26.3133 63.5593 26.2481C63.6543 25.7977 63.5897 25.3459 63.5633 24.8994C63.5072 24.8882 63.4748 24.8724 63.4498 24.8797C62.7344 25.0753 62.2744 24.6742 62.4348 23.9748C62.4698 23.8227 62.3675 23.7397 62.347 23.6206C62.3728 23.5791 62.3985 23.5376 62.4242 23.4961C62.6407 23.6015 62.6974 23.83 62.8096 23.9716C62.803 24.1191 62.5641 23.988 62.6242 24.1994C62.809 24.3193 62.9634 24.5063 63.1812 24.5642C63.3567 24.5017 63.327 24.2541 63.5296 24.2495ZM51.7883 43.6308C49.9439 42.6779 48.3409 41.4307 47.0574 39.7876C40.8396 31.8292 45.1205 20.131 55.0265 18.0948C58.5835 17.3638 61.9425 17.9887 65.0428 19.9064C65.1358 19.9644 65.2368 20.0105 65.3338 20.0612C65.5212 20.2679 65.7601 20.4023 66.001 20.534C66.0558 20.5906 66.1053 20.6538 66.1653 20.7026C70.6673 24.3305 72.4385 29.8398 70.7808 35.3787C68.8453 41.8456 62.3543 45.9324 55.4938 44.8037C54.4729 44.6351 53.5074 44.2788 52.5202 43.9963C52.3077 43.8106 52.0424 43.7323 51.7883 43.6308Z" fill="#AFAFAF"/>
<path fill-rule="evenodd" clip-rule="evenodd" d="M53.1779 32.526C53.5263 32.4977 53.6352 32.8908 53.944 32.9665C54.0272 32.9869 53.9849 33.2839 53.8457 33.4203C53.7962 33.4604 53.7474 33.5006 53.6979 33.5408C53.6352 33.5921 53.5481 33.633 53.6028 33.737C53.6985 33.7594 53.7434 33.6982 53.7936 33.6468C53.851 33.6093 53.9084 33.5711 53.9665 33.5335C54.5148 33.1997 55.0632 32.8658 55.6116 32.5319C55.5027 32.981 55.0665 33.1279 54.8112 33.4585C54.9148 33.5645 54.829 33.7601 54.9933 33.8582C55.1807 33.3742 55.6169 33.1582 56.0287 32.9744C56.4214 32.7993 56.8793 33.0232 57.1202 33.2681C57.404 33.5566 57.7287 33.8885 57.8349 34.3277C57.8349 34.3277 57.8422 34.3198 57.8428 34.3192C57.7656 34.3106 57.664 34.3317 57.6145 34.2902C57.0516 33.822 56.5824 34.005 56.1666 34.4963C55.9304 34.7762 55.6902 34.7591 55.4394 34.5437C54.9583 34.1315 54.4244 34.0702 53.8417 34.2783C53.721 34.3218 53.5976 34.3501 53.4689 34.304C52.5945 33.9912 51.7201 33.6784 50.7856 33.3452C51.3387 33.0284 51.8085 32.8026 52.3727 33.1898C52.6004 33.3458 52.9027 33.3985 53.1594 33.1443C53.3719 32.9336 53.0901 32.7216 53.1864 32.5181L53.1779 32.526Z" fill="#AFAFAF"/>
<path fill-rule="evenodd" clip-rule="evenodd" d="M56.4419 30.4027C56.0678 30.0122 55.392 30.188 55.3207 29.4952C55.299 29.2845 55.3781 29.2312 55.5286 29.189C55.4956 28.9869 55.1927 28.9651 55.2435 28.7162C55.4125 28.6681 55.5339 28.8189 55.685 28.8216C56.0084 28.4818 55.9371 28.0379 56.0394 27.6217C56.1225 28.0267 56.3839 28.3915 56.1456 28.8426C55.883 29.3385 55.9628 29.6342 56.403 29.9503C56.5521 30.0583 56.4815 30.1617 56.4419 30.4027Z" fill="#AFAFAF"/>
<path fill-rule="evenodd" clip-rule="evenodd" d="M53.2143 32.5417C52.6956 32.3046 52.2898 31.9068 51.8008 31.5987C52.0027 31.2503 52.4587 31.1864 52.5201 30.7709C52.7867 31.0014 52.7867 31.0014 52.4805 31.2812C52.6785 31.5453 52.889 31.2141 53.1351 31.3247C53.2691 31.7001 53.4037 32.1097 53.2064 32.5496L53.2143 32.5417Z" fill="#AFAFAF"/>
<path fill-rule="evenodd" clip-rule="evenodd" d="M57.8585 18.5166C50.6587 18.5166 44.8013 24.3618 44.8013 31.5464C44.8013 38.731 50.6587 44.5762 57.8585 44.5762C65.0582 44.5762 70.9156 38.731 70.9156 31.5464C70.9156 24.3618 65.0582 18.5166 57.8585 18.5166ZM57.8585 45.9907C49.8774 45.9907 43.3838 39.5107 43.3838 31.5464C43.3838 23.5814 49.8774 17.1021 57.8585 17.1021C65.8395 17.1021 72.3331 23.5814 72.3331 31.5464C72.3331 39.5107 65.8395 45.9907 57.8585 45.9907Z" fill="#151F2F"/>
<path fill-rule="evenodd" clip-rule="evenodd" d="M58.9276 48.5131L61.8081 48.0192L61.8656 48.0067C63.4698 47.5668 64.8669 46.9978 66.1372 46.2675C67.0076 45.7677 67.8226 45.1941 68.6317 44.5151L69.0956 44.1246L66.875 41.5135L65.9531 42.2952L67.3805 43.9738C66.7813 44.4434 66.1728 44.8536 65.5334 45.2211C64.3607 45.8954 63.0653 46.4236 61.5725 46.8345L58.8081 47.3113C58.7065 47.3192 58.6042 47.3251 58.5019 47.331V47.3383L56.3552 47.2599L56.3559 47.2566C49.4228 46.6429 43.6643 41.8039 42.0257 35.2159C40.6214 29.569 42.4336 23.5375 46.6498 19.685L48.2521 21.2833L49.1073 20.4298L46.7092 18.0374L46.2842 18.3976C41.4246 22.52 39.2917 29.2358 40.8511 35.5064C42.6065 42.5626 48.747 47.7512 56.1493 48.4486L56.1447 51.4113C52.1509 51.5193 49.1172 52.0527 49.1172 52.6961C49.1172 53.3382 52.1509 53.8723 56.1447 53.9803V53.9921H56.6944C57.0039 53.9974 57.3181 54 57.6368 54C62.342 54 66.1563 53.4159 66.1563 52.6961C66.1563 52.0238 62.837 51.4706 58.5719 51.3995V48.5362C58.6907 48.5296 58.8088 48.5223 58.9276 48.5131Z" fill="#151F2F"/>
<path fill-rule="evenodd" clip-rule="evenodd" d="M8.51789 4.83782C8.50667 4.87865 8.49215 4.89446 8.51789 4.91619V4.83782ZM3.52032 5.66758C3.46357 5.68075 3.43453 5.69524 3.45367 5.74726C3.49524 5.74134 3.51504 5.72092 3.52032 5.66758ZM8.04671 5.29485C7.99721 5.46475 7.87117 5.62741 8.00777 5.84077C7.98929 5.6386 8.01173 5.46607 8.04671 5.29485ZM7.7999 1.52868C7.69761 1.37195 7.5709 1.36536 7.42836 1.38314C7.50227 1.55765 7.65735 1.49048 7.7999 1.52868ZM9.10324 11.8262C8.98643 11.9474 8.85907 12.0205 8.73038 12.0863C8.62281 12.1417 8.59114 12.222 8.57992 12.3353C8.54956 12.6514 8.5621 12.976 8.46839 13.2803C8.39316 13.5266 8.44464 13.7195 8.5621 13.9362C8.82013 14.4143 9.11313 14.8766 9.27811 15.4001C9.3639 15.6721 9.44969 15.944 9.53548 16.2167C9.54736 16.2542 9.54406 16.3003 9.59422 16.3148C9.71432 16.3497 9.8892 16.2443 9.92088 16.1192C10.0515 15.5957 10.173 15.0702 10.3188 14.5512C10.3775 14.3405 10.3115 14.1811 10.1796 14.0494C9.89712 13.7689 9.7064 13.4469 9.62061 13.057C9.52558 12.623 9.30319 12.2411 9.10324 11.8262ZM3.85028 5.36004C3.84302 5.44631 3.71632 5.47726 3.74733 5.57934C3.83246 5.5306 3.81992 5.43314 3.85292 5.35873L3.8483 5.35741L3.85028 5.36004ZM3.73347 5.6419C3.6886 5.6656 3.61073 5.76899 3.59423 5.79731C3.64571 5.80455 3.70708 5.67614 3.73347 5.6419ZM10.0872 35.5954C9.44309 35.6376 9.11973 34.79 9.10852 34.5872C9.09004 34.2428 9.06562 33.8984 9.08872 33.552C9.11313 33.1819 9.04978 32.821 8.94222 32.4648C8.82871 32.0881 8.69343 31.7147 8.69937 31.3117C8.70069 31.2293 8.71256 31.1497 8.73236 31.07C8.84455 30.6248 8.90592 30.1671 8.9046 29.7134C8.90328 29.1694 8.83861 28.6255 8.78449 28.0828C8.7152 27.3828 8.53373 26.6966 8.51987 25.9894C8.51063 25.5113 8.54362 25.0351 8.58586 24.559C8.63271 24.0355 8.66109 23.51 8.69673 22.9858C8.70333 22.887 8.66835 22.7961 8.62743 22.7105C8.42484 22.2871 8.29484 21.8399 8.19321 21.3842C8.1127 21.0194 7.96949 20.6769 7.83487 20.3312C7.81309 20.2739 7.77152 20.2621 7.72137 20.2528C7.55969 20.2226 7.39735 20.2035 7.23237 20.2048C6.72687 20.2107 6.22401 20.2239 5.72313 20.3134C5.35226 20.3786 4.97544 20.4366 4.59863 20.3332C4.3439 20.2627 4.11623 20.1416 3.92287 19.9651C3.64967 19.7148 3.42661 19.4277 3.25239 19.0958C3.00096 18.6164 2.867 18.1126 2.83203 17.5759C2.77395 16.6816 2.94553 15.8235 3.23194 14.9832C3.26361 14.8897 3.26823 14.8252 3.1963 14.7317C3.0498 14.5414 2.8703 14.3748 2.75415 14.162C2.59115 13.8637 2.59313 13.5331 2.59577 13.2065C2.60039 12.494 2.48095 11.7953 2.38262 11.0933C2.31993 10.6448 2.12789 10.2444 1.94377 9.84073C1.91672 9.78014 1.86392 9.74326 1.82433 9.69387C1.70092 9.54175 1.69828 9.38173 1.83093 9.24146C1.88174 9.18812 1.87778 9.14729 1.85601 9.08538C1.75966 8.80485 1.69432 8.51904 1.7029 8.21809C1.71346 7.85063 1.81971 7.50424 2.06322 7.2428C2.2546 7.03668 2.50471 6.87665 2.81157 6.83055C3.24381 6.7647 3.65296 6.61785 4.0311 6.39329C4.09841 6.35377 4.12151 6.31426 4.05222 6.25302C4.03572 6.23853 3.99348 6.21351 4.02912 6.18124C4.13932 6.08114 4.11623 5.96063 4.08257 5.84077C4.06937 5.79534 4.10567 5.76636 4.11359 5.71368C4.05749 5.75121 4.01988 5.75846 4.06739 5.83814C4.10765 5.90531 4.06739 6.02912 4.01262 6.0706C3.95257 6.11604 4.01394 6.25763 3.88526 6.2326C3.8549 6.18321 3.88262 6.1358 3.8681 6.08641C3.8219 6.09629 3.78627 6.37155 3.73875 6.38143C3.79023 6.04558 3.54738 6.38999 3.54738 6.38999C3.54738 6.36892 3.70114 6.04821 3.70114 6.02385C3.64835 6.02648 3.48073 6.19177 3.38636 6.31821C3.36458 6.34719 3.32828 6.42029 3.20752 6.46441L3.20686 6.46507C3.29265 6.37287 3.30585 6.34455 3.30585 6.34455L3.01548 6.37814C3.01284 6.3406 3.29925 6.27343 3.31245 6.26224C3.42463 6.19638 3.5091 6.05875 3.5388 5.89477C3.34808 5.84209 2.60765 6.26619 2.3714 6.18321C2.63801 6.08509 3.47413 5.79995 3.48798 5.50624C3.43585 5.4957 3.41275 5.52929 3.39032 5.55365C3.21742 5.74397 2.42024 5.91782 2.12855 5.9817C2.36876 5.86119 3.12173 5.49768 3.34148 5.35807C3.37976 5.3337 3.40945 5.29221 3.44971 5.27641C3.6853 5.18487 3.70378 4.97348 3.72688 4.77197C3.76647 4.42163 3.77637 4.07063 3.69058 3.72226C3.64043 3.5168 3.6523 3.30541 3.71038 3.1006C3.8285 2.69165 3.94465 2.28138 4.07201 1.87507C4.17496 1.54712 4.37756 1.26855 4.55573 0.981433C4.70158 0.745677 4.94971 0.662701 5.22027 0.689043C5.38921 0.705506 5.52713 0.664677 5.66638 0.572482C5.85181 0.448677 6.05243 0.446043 6.23853 0.572482C6.30848 0.619896 6.37711 0.604092 6.44574 0.615945C6.73215 0.665335 6.942 0.831287 7.1182 1.04795C7.16505 1.1059 7.21125 1.13158 7.2878 1.13158C7.65933 1.1329 7.91538 1.31334 8.06386 1.64985C8.13118 1.80263 8.2625 1.9159 8.31133 2.08382C8.3793 2.32024 8.39382 2.56587 8.43012 2.8036C8.48819 3.17634 8.58388 3.53919 8.65185 3.90797C8.702 4.17929 8.7185 4.45192 8.68023 4.72785C8.66703 4.82268 8.62545 4.90038 8.55088 4.92673C8.46245 4.95834 8.43606 5.02419 8.39976 5.08741C8.32255 5.08609 8.33509 5.03604 8.34301 4.99126C8.38326 4.76934 8.39976 4.5428 8.4585 4.32285C8.48423 4.22802 8.51591 4.12134 8.44464 4.02782C8.37403 4.03507 8.38986 4.08907 8.38128 4.12331C8.30671 4.4078 8.24864 4.69558 8.16483 4.97809C8.10082 5.19343 8.13315 5.42853 8.17869 5.65243C8.23148 5.90992 8.33047 6.15621 8.36281 6.41897C8.36875 6.46441 8.3958 6.47099 8.4321 6.48614C8.57398 6.54607 8.72708 6.56912 8.86501 6.64551C9.13557 6.79499 9.30979 7.02153 9.46025 7.28099C9.68067 7.66229 9.8529 8.05741 9.89448 8.50455C9.96575 8.48019 10.0245 8.4578 10.0852 8.44002C10.1974 8.40643 10.2475 8.44331 10.2244 8.55592C10.0944 9.18877 10.2086 9.79265 10.4079 10.3952C10.6606 11.1571 10.9787 11.8828 11.4446 12.542C11.5957 12.7554 11.6419 13.0162 11.6994 13.2677C11.7231 13.3705 11.7376 13.4726 11.8683 13.4956C11.8841 13.4976 11.9033 13.5127 11.9112 13.5266C12.0188 13.7182 12.2148 13.7182 12.3956 13.7478C12.5144 13.7676 12.6318 13.7847 12.6886 13.9078C13.2192 13.9072 13.7213 13.7491 14.2387 13.6965C14.2856 13.6912 14.6195 13.6174 14.6756 13.6076C15.6338 13.4403 16.592 13.271 17.5502 13.1025C17.5819 13.0972 17.6136 13.0932 17.6452 13.0886C17.8505 13.0597 17.9402 13.1749 17.8637 13.3725C17.6386 13.9553 17.4129 14.5381 17.1866 15.1209C16.8837 15.9019 16.5874 16.6862 16.2719 17.462C16.2013 17.6352 16.1901 17.8077 16.1716 17.9829C16.1591 18.1027 16.1037 18.1468 15.9981 18.1699C15.1098 18.3609 14.2222 18.5545 13.334 18.7468C12.8239 18.8581 12.3137 18.9687 11.803 19.08C11.7812 19.0846 11.7607 19.0945 11.7337 19.105C11.7818 19.3579 11.8696 19.5996 11.9336 19.8472C11.9765 20.0145 12.1349 20.1304 12.2933 20.2179C12.4167 20.2858 12.4913 20.3931 12.5375 20.5228C12.5447 20.5419 12.5546 20.5624 12.5678 20.5775C13.2337 21.3309 13.6837 22.2199 14.1635 23.0905C14.4341 23.5811 14.8076 24.0032 15.1072 24.4754C15.1778 24.588 15.2781 24.6762 15.3843 24.7559C15.6199 24.9337 15.8008 25.1589 15.9651 25.4013C16.4343 26.0914 16.9398 26.7519 17.5786 27.2979C18.0676 27.7154 18.4411 28.3548 18.1223 28.7921C17.5674 29.5527 16.6138 28.8454 16.4165 28.6479C16.0885 28.3199 15.7796 27.9735 15.5308 27.5797C15.3118 27.2327 15.0286 26.933 14.8063 26.5886C14.7521 26.505 14.6947 26.422 14.6505 26.3331C14.5119 26.0539 14.2968 25.8353 14.1008 25.5982C13.4745 24.8428 12.6813 24.2706 11.9613 23.6186C11.6512 23.3368 11.345 23.0523 11.0434 22.7224C11.0256 22.8857 10.9675 23.0246 10.984 23.1695C11.0573 23.7984 11.1041 24.428 11.0658 25.0595C11.0216 25.8037 10.9233 26.5419 10.7906 27.2755C10.6725 27.9288 10.5914 28.5866 10.524 29.2458C10.5069 29.4085 10.4831 29.5705 10.4548 29.7312C10.4257 29.8971 10.394 30.0618 10.4145 30.2323C10.4257 30.3278 10.4125 30.4233 10.3808 30.5148C10.3643 30.5629 10.3637 30.6116 10.361 30.6617C10.3294 31.2754 10.4284 31.8668 10.6164 32.4509C10.7497 32.8651 10.854 33.2892 10.9207 33.7199C10.9748 34.0709 11.0203 34.4213 10.9358 34.7742C10.9193 34.8414 10.7497 35.5526 10.0872 35.5954Z" fill="#01C089"/>
<path fill-rule="evenodd" clip-rule="evenodd" d="M136.797 8.66942C136.847 8.58513 136.901 8.50215 136.894 8.39613C136.871 8.39876 136.89 8.43169 136.863 8.42971C136.849 8.40008 136.875 8.36715 136.851 8.32632C136.822 8.45737 136.777 8.57525 136.765 8.70169C136.768 8.70564 136.772 8.70893 136.776 8.71222C136.754 8.74515 136.701 8.74515 136.691 8.78466C136.775 8.91637 136.873 8.82615 136.961 8.80376C137.044 8.78203 136.988 8.69708 137.017 8.64637C137.039 8.6793 137.023 8.71815 137.033 8.75898C137.08 8.72342 137.09 8.67205 137.123 8.62464C137.117 8.7491 136.986 8.80574 136.984 8.92296C137.039 8.89596 137.068 8.84525 137.103 8.79915C137.084 8.88147 137.031 8.93547 136.969 8.98486C136.988 9.01383 137.012 9.03359 137.039 9.0461C137.072 9.04083 137.087 9.00264 137.122 9.00725C137.121 9.04083 137.086 9.05335 137.089 9.08232C137.209 9.18374 137.212 9.30557 137.097 9.40961C136.985 9.51103 136.981 9.54396 137.08 9.65459C137.132 9.71254 137.153 9.77378 137.132 9.85742C137.118 9.82647 137.109 9.80342 137.103 9.78959C137.01 9.86532 137.123 9.98188 137.045 10.0734C137.041 10.024 137.066 9.97266 137.008 9.93578C136.986 10.0095 137.008 10.0932 136.933 10.1472C137.127 10.2947 137.293 10.4573 137.44 10.6417C137.602 10.8419 137.752 11.0448 137.8 11.3062C137.846 11.5584 137.868 11.812 137.883 12.0675C137.893 12.2604 137.918 12.456 137.879 12.6476C137.79 13.075 137.687 13.4991 137.541 13.9114C137.498 14.0299 137.44 14.1432 137.413 14.2663C137.377 14.429 137.347 14.5916 137.378 14.7609C137.39 14.8313 137.468 16.7753 137.535 17.3693C137.568 17.6631 137.609 17.9568 137.594 18.2538C137.58 18.5192 137.544 18.7832 137.572 19.0512C137.583 19.152 137.547 19.2521 137.506 19.3469C137.498 19.366 137.486 19.3943 137.471 19.3976C137.376 19.4187 137.374 19.501 137.349 19.5689C137.318 19.6571 137.292 19.75 137.198 19.7967C137.141 19.8263 137.085 19.8586 137.025 19.8817C136.975 19.9008 136.948 19.9317 136.928 19.9798C136.86 20.1569 136.787 20.3328 136.72 20.5106C136.692 20.5856 136.657 20.6291 136.565 20.6271C136.439 20.6238 136.311 20.6317 136.186 20.6508C135.737 20.718 135.298 20.6383 134.865 20.5461C134.485 20.4651 134.151 20.2649 133.835 20.0463C133.719 19.9666 133.62 19.9185 133.495 20.0114C133.482 20.0206 133.465 20.0239 133.45 20.0292C132.91 20.1938 132.361 20.3104 131.795 20.3163C131.477 20.3196 131.179 20.4072 130.886 20.5119C130.742 20.5639 130.746 20.5883 130.769 20.7351C130.81 21.0032 130.907 21.26 130.917 21.5339C130.928 21.8672 130.954 22.1997 130.861 22.527C130.754 22.903 130.705 23.2889 130.66 23.6755C130.627 23.9666 130.597 24.2576 130.565 24.5494C130.532 24.8477 130.534 25.1453 130.581 25.4417C130.588 25.4812 130.591 25.5227 130.629 25.5477C130.688 25.5859 130.709 25.6399 130.689 25.7064C130.682 25.7321 130.688 25.7512 130.694 25.7756C130.75 25.9665 130.816 26.1575 130.707 26.3491C130.841 26.4269 130.845 26.4348 130.814 26.5783C130.779 26.7383 130.714 26.8892 130.662 27.0439C130.638 27.1144 130.575 27.146 130.508 27.1605C130.426 27.1769 130.344 27.1842 130.259 27.1743C130.045 27.1493 129.836 27.094 129.628 27.0426C129.463 27.0024 129.299 26.9695 129.127 27.0255C128.591 27.2013 128.053 27.196 127.517 27.0202C127.406 26.9833 127.316 26.9181 127.268 26.8068C127.227 26.7113 127.253 26.6587 127.353 26.6336C127.4 26.6218 127.438 26.6007 127.48 26.5744C127.544 26.5322 127.604 26.4828 127.69 26.4657C127.803 26.4427 127.915 26.3926 127.995 26.2978C128.05 26.2326 128.179 26.2003 128.268 26.2319C128.259 26.2458 128.25 26.2596 128.239 26.2761C128.311 26.2872 128.348 26.2372 128.39 26.203C128.578 26.0469 128.767 25.8908 128.966 25.7479C129.17 25.6004 129.33 25.4186 129.413 25.1756C129.438 25.0979 129.443 25.0202 129.448 24.932C129.223 24.9972 129 25.0051 128.779 24.9675C128.495 24.9188 128.242 24.986 127.983 25.0986C127.524 25.2968 127.067 25.2955 126.639 25.0011C126.541 24.934 126.457 24.8497 126.403 24.741C126.353 24.6402 126.376 24.5672 126.473 24.5099C126.508 24.4888 126.546 24.475 126.585 24.4671C126.603 24.4631 126.629 24.4651 126.634 24.444C126.646 24.3788 126.702 24.3663 126.748 24.3426C126.804 24.3143 126.851 24.2807 126.884 24.2227C126.943 24.1174 127.024 24.0871 127.144 24.1187C127.173 24.1266 127.195 24.1207 127.218 24.1035C127.294 24.0436 127.37 23.987 127.468 23.9666C127.49 23.962 127.514 23.9455 127.528 23.9277C127.624 23.8072 127.752 23.7275 127.879 23.6478C127.958 23.5971 128.025 23.5405 128.056 23.4476C128.068 23.4134 128.086 23.3752 128.113 23.3521C128.206 23.2712 128.254 23.1632 128.301 23.0558C128.566 22.4532 128.688 21.8243 128.654 21.1652C128.633 20.7588 128.644 20.3545 128.701 19.9502C128.741 19.6657 128.789 19.3825 128.794 19.0934C128.796 18.9591 128.788 18.8241 128.815 18.691C128.854 18.502 128.891 18.3124 128.93 18.1234C128.996 17.8125 129.171 17.5965 129.479 17.4978C129.527 17.4826 129.579 17.4754 129.629 17.4642C129.566 17.4378 129.566 17.3628 129.519 17.3338C129.459 17.2982 129.465 17.2469 129.459 17.1896C129.45 17.1125 129.477 17.0829 129.549 17.077C129.552 17.077 129.556 17.0664 129.567 17.0532C129.471 17.0532 129.446 16.9933 129.432 16.9196C129.426 16.8912 129.412 16.8642 129.399 16.8379C129.248 16.5159 129.096 16.1932 128.944 15.8712C128.71 15.3773 128.475 14.8834 128.242 14.3888C128.217 14.3355 128.193 14.2802 128.206 14.2182C128.213 14.182 128.223 14.1484 128.275 14.1452C128.425 14.1359 128.576 14.1379 128.726 14.1471C128.828 14.1537 128.889 14.2005 128.934 14.2986C129.366 15.2146 129.805 16.1273 130.24 17.0421C130.263 17.0875 130.283 17.1046 130.334 17.1026C130.553 17.0947 130.771 17.0914 130.99 17.0895C131.031 17.0888 131.056 17.0743 131.074 17.0414C131.133 16.9341 131.212 16.8458 131.314 16.7793C131.385 16.7339 131.45 16.6575 131.532 16.6555C131.658 16.6535 131.783 16.6265 131.91 16.6489C131.977 16.6614 132.053 16.6515 132.103 16.6133C132.205 16.535 132.314 16.5758 132.411 16.5929C132.621 16.6292 132.82 16.6219 133.016 16.5383C133.286 16.425 133.488 16.2215 133.707 16.0398C133.89 15.8883 134.029 15.7039 134.132 15.4892C134.235 15.2739 134.346 15.0632 134.452 14.8491C134.481 14.7918 134.522 14.7411 134.536 14.6766C134.583 14.4771 134.507 14.3104 134.389 14.161C134.289 14.0352 134.221 13.8942 134.165 13.7454C134.124 13.6374 134.116 13.5261 134.138 13.4129C134.204 13.0684 134.329 12.7438 134.473 12.4264C134.491 12.3888 134.502 12.3533 134.502 12.3118C134.501 12.0997 134.486 11.887 134.57 11.6842C134.578 11.6618 134.576 11.6361 134.583 11.6131C134.611 11.5071 134.653 11.4089 134.772 11.3734C134.791 11.3681 134.805 11.3595 134.81 11.3378C134.825 11.2608 134.885 11.2324 134.949 11.2074C134.984 11.1936 135.022 11.1857 135.049 11.1567C135.168 11.0303 135.324 10.9466 135.446 10.8202C135.532 10.7306 135.54 10.7392 135.481 10.6292C135.469 10.6082 135.46 10.5851 135.457 10.5614C135.432 10.375 135.328 10.2255 135.23 10.0662C135.188 10.0965 135.151 10.1235 135.112 10.1485C134.985 10.2328 134.747 10.2525 134.624 10.0695C134.609 10.0471 134.593 10.0253 134.578 10.003C134.55 9.95949 134.522 9.92459 134.458 9.92788C134.407 9.93118 134.386 9.88903 134.391 9.83832C134.392 9.81857 134.412 9.80013 134.398 9.7751C134.347 9.76588 134.289 9.75798 134.272 9.69739C134.247 9.61178 134.188 9.57096 134.11 9.54066C134.056 9.51959 133.996 9.486 133.999 9.41686C134.004 9.2733 133.909 9.15739 133.91 9.01252C133.879 9.02832 133.87 9.05532 133.837 9.04281C133.836 9.02239 133.854 8.99342 133.83 8.973C133.789 8.93744 133.787 8.88937 133.784 8.84064C133.781 8.79454 133.771 8.75042 133.732 8.71749C133.715 8.703 133.705 8.68457 133.704 8.66217C133.697 8.53244 133.662 8.40798 133.647 8.28022C133.638 8.21239 133.645 8.14259 133.592 8.08859C133.61 8.07213 133.616 8.10242 133.637 8.09452C133.642 8.05237 133.601 8.03591 133.582 8.00364C133.558 8.04118 133.614 8.0583 133.593 8.08991C133.541 8.082 133.534 8.03986 133.528 8.001C133.521 7.96017 133.51 7.92 133.483 7.89037C133.408 7.80674 133.457 7.72705 133.491 7.65132C133.544 7.53278 133.624 7.43269 133.726 7.35037C133.768 7.31678 133.799 7.27332 133.818 7.2213C133.838 7.16927 133.87 7.11527 133.92 7.10013C134.042 7.06259 134.129 6.94537 134.271 6.95327C134.3 6.95459 134.337 6.93944 134.359 6.91903C134.502 6.78732 134.701 6.78074 134.861 6.6892C134.892 6.67142 134.933 6.66944 134.972 6.678C135.022 6.68854 135.073 6.69249 135.123 6.70171C135.402 6.75242 135.652 6.84857 135.789 7.12186C135.804 7.15083 135.821 7.18113 135.851 7.19496C135.917 7.22657 135.937 7.27727 135.923 7.34642C135.92 7.36288 135.918 7.38461 135.942 7.39976C135.958 7.39713 135.979 7.39383 136.005 7.38988C135.985 7.34576 135.987 7.30361 136.001 7.25949C136.004 7.32732 136.009 7.38396 136.096 7.40042C136.119 7.40503 136.143 7.4182 136.172 7.41688C136.274 7.41359 136.381 7.41161 136.468 7.4722C136.665 7.60786 136.845 7.76064 136.89 8.01549C136.902 8.08398 136.92 8.15247 136.924 8.22161C136.939 8.38757 136.928 8.54957 136.808 8.68259C136.804 8.67798 136.8 8.67337 136.797 8.66942ZM129.411 22.9083C129.381 23.096 129.329 23.2573 129.366 23.4285C129.374 23.4634 129.387 23.4911 129.409 23.5201C129.451 23.5754 129.506 23.6294 129.471 23.7124C129.467 23.7222 129.481 23.74 129.486 23.7545C129.492 23.4773 129.463 23.2033 129.411 22.9083Z" fill="#01C089"/>
<mask id="mask0" mask-type="alpha" maskUnits="userSpaceOnUse" x="0" y="7" width="4" height="12">
<path fill-rule="evenodd" clip-rule="evenodd" d="M0 7.60474H3.40452V18.6677H0V7.60474Z" fill="white"/>
</mask>
<g mask="url(#mask0)">
<path fill-rule="evenodd" clip-rule="evenodd" d="M2.46462 7.95818L2.16237 7.60586C2.16237 7.60586 1.971 7.56042 1.89115 8.04708L2.03039 8.54954L1.66216 8.60684C1.66216 8.60684 0.995638 9.2094 0.905229 10.1221C0.905229 10.1221 1.37377 10.998 1.21539 12.1452C1.21539 12.1452 1.15468 10.9321 0.826039 10.6832C0.826039 10.6832 -0.201455 10.0688 0.0347958 13.6763C0.0347958 13.6763 0.227492 16.616 0.700654 18.3901C0.700654 18.3901 1.1824 19.1138 2.09242 18.2241C3.00311 17.3338 3.40434 16.286 3.40434 16.286L2.46462 7.95818Z" fill="#01C089"/>
</g>
<path fill-rule="evenodd" clip-rule="evenodd" d="M148.964 17.6697C148.925 17.8238 148.841 17.968 148.761 18.1089C148.688 18.2387 148.592 18.3559 148.511 18.4817C148.511 18.4817 148.51 18.485 148.507 18.4902C148.482 18.5304 148.358 18.728 148.239 18.9216C148.143 19.079 148.049 19.2337 148.016 19.2976C148.014 19.3016 148.012 19.3042 148.009 19.3081C147.929 19.4464 147.86 19.4049 147.788 19.3687C147.756 19.3529 147.735 19.32 147.718 19.2844C147.698 19.2357 147.689 19.1817 147.687 19.1613C147.684 19.1244 147.621 18.9604 147.621 18.9604C147.621 18.9604 147.617 18.9532 147.608 18.9347C147.597 18.9097 147.576 18.8636 147.543 18.7846C147.485 18.6463 147.567 18.6206 147.567 18.6206C147.647 18.56 147.604 18.4935 147.613 18.4698C147.613 18.3631 147.621 18.3519 147.679 18.2314C147.724 18.1353 147.568 17.9002 147.449 17.7803C147.288 17.6164 147.078 17.4978 146.883 17.3694C146.639 17.2074 146.383 17.0612 146.142 16.8939C146.022 16.811 145.918 16.7853 145.781 16.8485C145.674 16.8979 145.552 16.9196 145.437 16.9545C145.418 16.9493 145.399 16.9446 145.379 16.9394C145.379 17.2252 145.34 17.5176 145.39 17.7928C145.438 18.0464 145.575 18.2854 145.687 18.5238C145.785 18.7313 145.74 18.8722 145.518 18.9183C145.315 18.9591 145.105 18.9729 144.897 18.9861C144.487 19.0118 144.076 19.0283 143.666 19.046C143.602 19.0493 143.555 19.0388 143.529 19.0157C143.459 18.9545 143.495 18.7886 143.641 18.7194C143.742 18.6713 143.805 18.5462 143.892 18.4632C143.931 18.4264 143.997 18.3776 144.035 18.3882C144.23 18.4474 144.306 18.3368 144.415 18.1985C144.709 17.831 144.472 17.4576 144.459 17.0895C144.452 16.9196 144.353 16.755 144.299 16.5857C144.153 16.1281 144.206 15.6598 144.219 15.1923C144.225 14.9335 144.386 14.6898 144.264 14.4139C144.228 14.3309 144.31 14.1933 144.345 14.084C144.362 14.0313 144.395 13.9826 144.422 13.9318C144.329 13.8699 144.25 13.8186 144.192 13.7791C144.247 13.6223 144.295 13.4867 144.343 13.3517C144.326 13.3352 144.306 13.3207 144.289 13.3049C144.122 13.4195 143.926 13.5097 143.796 13.6559C143.644 13.8271 143.478 13.9167 143.266 13.9338C143.23 14.0352 143.197 14.1281 143.163 14.2223C142.919 14.1156 142.848 13.9819 142.884 13.7099C142.919 13.4393 143.044 13.3122 143.317 13.2707C143.675 13.216 143.993 12.7741 143.944 12.4218C143.852 11.7672 143.794 11.1159 144.06 10.4778C144.111 10.3553 144.097 10.1815 144.055 10.0491C143.969 9.78043 143.975 9.73762 144.249 9.6428C144.268 9.63687 144.282 9.62304 144.294 9.61514C144.14 9.57826 143.939 9.58748 143.843 9.49067C143.761 9.40967 143.538 9.32275 143.633 9.15745C143.588 9.05472 143.557 8.98097 143.525 8.90655C143.522 8.90062 143.528 8.88877 143.525 8.88811C143.268 8.74784 143.514 8.57662 143.49 8.43109C143.465 8.27238 143.379 8.09392 143.263 7.9846C143.074 7.80548 142.995 7.67509 143.118 7.44987C143.195 7.30762 143.328 7.19304 143.448 7.0778C143.538 6.99087 143.647 6.91843 143.751 6.84533C143.813 6.80187 143.882 6.73667 143.949 6.73536C144.194 6.73075 144.393 6.60036 144.613 6.53187C144.875 6.45021 145.153 6.44823 145.436 6.54372C145.728 6.64382 145.748 6.91711 145.888 7.11336C146.011 7.28589 146.113 7.47489 146.213 7.66389C146.258 7.74687 146.303 7.84697 146.296 7.93653C146.275 8.20982 146.206 8.47982 146.039 8.69977C145.961 8.80514 145.816 8.85716 145.711 8.94475C145.632 9.0106 145.568 9.09423 145.465 9.20421C145.589 9.22397 145.657 9.22199 145.71 9.24636C145.756 9.26743 145.822 9.3234 145.818 9.35831C145.787 9.64082 145.911 9.84628 146.093 10.0478C146.2 10.1657 146.274 10.3217 146.327 10.4726C146.439 10.7913 146.626 11.06 146.837 11.3142C147.071 11.5934 147.167 11.9325 147.263 12.2697C147.339 12.5371 147.399 12.8123 147.449 13.0869C147.492 13.3201 147.606 13.5183 147.694 13.7323C147.784 13.9523 147.744 14.2341 147.72 14.4863C147.716 14.5265 147.5 14.5601 147.38 14.5726C147.311 14.5798 147.238 14.537 147.196 14.5245V14.1064C147.174 14.105 147.153 14.1044 147.132 14.1024C147.114 14.2137 147.099 14.325 147.081 14.4363L147.031 14.4396C147.01 14.4047 146.971 14.3704 146.97 14.3336C146.958 14.1031 146.928 13.8693 146.951 13.6408C146.993 13.2173 146.833 12.8571 146.639 12.4462C146.561 12.8966 146.475 13.2931 146.806 13.6566C146.72 13.6816 146.668 13.6961 146.614 13.7112C146.612 13.731 146.602 13.7514 146.608 13.7666C146.707 14.0194 146.7 14.2624 146.547 14.4936C146.53 14.5206 146.51 14.5561 146.515 14.5838C146.581 14.9651 146.423 15.3148 146.365 15.6789C146.356 15.7349 146.364 15.7942 146.364 15.7975C146.532 15.9305 146.674 16.0313 146.805 16.1472C147.172 16.4764 147.535 16.811 147.901 17.1422C147.92 17.16 147.949 17.187 147.965 17.1817C148.315 17.0711 148.561 17.3358 148.872 17.4168C149.065 17.4669 148.984 17.594 148.964 17.6697Z" fill="#01C089"/>
<path fill-rule="evenodd" clip-rule="evenodd" d="M30.0109 18.806C29.902 18.6875 29.7542 18.6012 29.6585 18.4761C29.4189 18.162 29.0758 17.9018 29.0771 17.4521C29.0797 16.6045 28.9986 15.7715 28.7821 14.9457C28.6118 14.297 28.6422 13.6293 28.7564 12.9641C28.8408 12.4715 28.9359 11.979 28.8045 11.4686C28.73 11.1795 28.7333 10.8693 28.7029 10.5802C28.9946 10.4986 29.3661 10.5783 29.5437 10.3451C29.5964 10.276 29.5041 10.1337 29.5496 10.0685C29.7423 9.79657 29.5892 9.55489 29.5245 9.30004C29.4862 9.14857 29.4196 8.98657 29.4447 8.84235C29.4843 8.60594 29.6129 8.38599 29.6605 8.15089C29.7403 7.74918 29.8228 7.34352 29.8347 6.93852C29.8426 6.66721 29.7773 6.37218 29.6644 6.12391C29.4625 5.68138 29.2137 5.25728 28.9524 4.84504C28.8732 4.71991 28.691 4.65867 28.5525 4.56648C28.8098 4.29582 28.8151 4.26026 28.5828 4.00738C28.4455 3.85723 28.5346 3.75713 28.6264 3.63465C28.7689 3.44565 28.9101 3.25204 29.0236 3.0446C29.1127 2.88062 29.0566 2.70479 28.8897 2.62972C28.4713 2.44204 28.3195 2.10882 28.3063 1.68143C28.3056 1.62809 28.2759 1.57606 28.2733 1.52272C28.2265 0.720622 27.5679 0.517793 26.9944 0.245158C26.8934 0.197085 26.7364 0.259646 26.6064 0.280719C26.5371 0.291915 26.4717 0.332085 26.4024 0.340646C25.7141 0.421646 25.1539 1.04989 25.1446 1.74399C25.1433 1.90335 25.1499 2.08182 25.0813 2.21682C24.9209 2.53291 24.7249 2.83255 24.5296 3.13087C24.4141 3.30867 24.3554 3.4575 24.5672 3.60765C24.6932 3.69787 24.7315 3.79862 24.6055 3.94416C24.552 4.0054 24.5659 4.14765 24.5877 4.24445C24.6141 4.36365 24.7078 4.47165 24.7243 4.59018C24.7467 4.76601 24.8562 5.00638 24.6339 5.10318C24.1508 5.31589 23.933 5.73472 23.7575 6.17133C23.6215 6.50718 23.2573 6.78969 23.4592 7.22696C23.4764 7.26318 23.4328 7.32772 23.4196 7.37974C23.2929 7.87562 23.1873 8.37018 23.1893 8.89174C23.1913 9.71887 23.3582 10.5618 23.0283 11.3692C23.0078 11.4185 23.0052 11.4752 22.9992 11.5285C22.9643 11.8591 23.2823 12.3089 23.5298 12.2503C23.84 12.1778 24.005 12.1469 24.1 12.0402C24.3527 11.7577 24.4016 11.4126 24.2577 11.0359C24.1541 10.7626 24.0175 10.4538 24.0538 10.1812C24.1567 9.38301 24.3376 8.5954 24.4893 7.80384L24.6055 7.80977C24.6339 8.12718 24.6847 8.44394 24.6893 8.76267C24.7031 9.68396 24.8424 10.6039 24.6847 11.5285C24.6365 11.8058 24.6629 12.1034 24.7005 12.3859C24.818 13.2881 24.942 14.1982 24.8021 15.0978C24.6913 15.813 24.7922 16.4886 24.9071 17.1794C24.9698 17.5541 25.0549 17.9249 24.8516 18.3095C24.7381 18.5235 24.7447 18.8119 24.7421 19.0668C24.7408 19.1623 24.8556 19.3315 24.9341 19.3427C25.3756 19.3987 25.821 19.4264 26.2658 19.4382C26.3226 19.4402 26.4381 19.2894 26.4321 19.2176C26.4077 18.943 26.413 18.6308 26.2817 18.4069C25.9755 17.8893 25.9616 17.3605 26.0467 16.7981C26.1589 16.054 26.1635 15.296 26.4216 14.571C26.5146 14.3075 26.4361 13.9908 26.4757 13.703C26.5351 13.2756 26.6288 12.8515 26.7106 12.4255C26.7113 12.4208 26.739 12.4195 26.7806 12.4129C26.8947 13.059 26.9719 13.7122 27.129 14.3464C27.3257 15.1353 27.5791 15.9098 27.8246 16.6855C27.9631 17.1235 28.1215 17.5535 28.0648 18.0237C28.0311 18.3068 27.9691 18.5887 27.9625 18.8732C27.9592 18.9799 28.0463 19.13 28.1393 19.1913C28.7009 19.564 29.312 19.429 29.9073 19.3032C30.1343 19.2551 30.1759 18.9851 30.0109 18.806Z" fill="#01C089"/>
<path fill-rule="evenodd" clip-rule="evenodd" d="M111.542 38.5164L112.763 34.9161L113.991 38.5164H111.542ZM116.109 23.8718H109.576L110.668 44.7H115.906L118.589 52.5794H125.926L116.109 23.8718Z" fill="#151F2F"/>
</svg>
